<?xml version="1.0" encoding="UTF-8" ?>
<!DOCTYPE svg PUBLIC "-//W3C//DTD SVG 1.1//EN" "http://www.w3.org/Graphics/SVG/1.1/DTD/svg11.dtd">
<svg width="200pt" height="200pt" viewBox="0 0 200 200" version="1.1" xmlns="http://www.w3.org/2000/svg">
<g id="#000000ff">
<path fill="#000000" opacity="1.00" d=" M 12.42 9.46 C 24.77 7.02 38.34 15.49 40.59 28.06 C 46.92 64.73 53.00 101.45 59.29 138.13 C 60.15 142.62 63.33 146.63 67.54 148.43 C 70.49 149.87 73.86 149.45 77.03 149.51 C 110.30 149.49 143.58 149.49 176.85 149.51 C 180.54 149.29 183.26 153.94 181.06 156.99 C 179.79 159.04 177.26 159.78 174.96 159.53 C 140.98 159.47 106.99 159.51 73.00 159.51 C 61.82 159.96 50.90 151.22 49.28 140.05 C 43.06 103.67 36.96 67.26 30.76 30.87 C 30.03 25.71 26.01 21.47 21.22 19.73 C 17.50 18.49 12.64 20.69 9.84 17.20 C 7.47 14.56 9.30 10.45 12.42 9.46 Z" />
<path fill="#000000" opacity="1.00" d=" M 58.27 35.42 C 59.73 34.73 61.41 35.08 62.97 34.97 C 99.33 35.03 135.68 34.99 172.04 34.99 C 178.81 34.98 185.58 39.48 187.58 46.05 C 188.87 49.61 188.64 53.50 187.73 57.11 C 183.36 74.53 179.02 91.96 174.65 109.39 C 172.17 120.74 161.43 129.39 149.94 130.09 C 124.94 131.98 99.94 133.78 74.95 135.68 C 72.89 135.82 70.39 135.75 69.05 133.92 C 66.79 131.07 68.23 125.95 72.10 125.54 C 95.74 123.83 119.40 122.18 143.04 120.49 C 147.41 120.14 152.07 120.27 155.99 118.02 C 159.75 115.87 163.27 112.64 164.28 108.26 C 168.83 90.45 173.23 72.60 177.75 54.78 C 178.29 52.22 179.09 48.99 177.01 46.90 C 175.30 44.86 172.38 45.13 169.99 44.99 C 133.65 45.02 97.31 44.98 60.97 45.01 C 58.37 45.29 55.68 43.52 55.12 40.93 C 54.49 38.61 56.19 36.29 58.27 35.42 Z" />
<path fill="#000000" opacity="1.00" d=" M 57.35 165.60 C 65.31 162.80 74.64 169.54 74.30 178.00 C 74.78 185.89 66.66 192.70 58.96 191.01 C 52.06 189.99 46.96 182.77 48.32 175.90 C 49.02 171.11 52.79 167.04 57.35 165.60 Z" />
<path fill="#000000" opacity="1.00" d=" M 149.34 165.56 C 156.23 163.29 164.34 167.89 165.84 174.99 C 167.77 181.85 162.97 189.51 156.02 190.91 C 148.92 192.75 141.05 187.42 140.17 180.14 C 139.02 173.86 143.25 167.28 149.34 165.56 Z" />
</g>
</svg>
