<?xml version="1.0" encoding="UTF-8" ?>
<!DOCTYPE svg PUBLIC "-//W3C//DTD SVG 1.1//EN" "http://www.w3.org/Graphics/SVG/1.1/DTD/svg11.dtd">
<svg width="200pt" height="200pt" viewBox="0 0 200 200" version="1.1" xmlns="http://www.w3.org/2000/svg">
<g id="#000000ff">
<path fill="#000000" opacity="1.00" d=" M 38.24 26.25 C 46.92 20.48 57.83 17.94 68.11 20.06 C 80.03 22.40 90.63 29.21 99.35 37.47 C 109.32 28.01 121.86 19.96 135.93 19.15 C 148.88 18.37 161.14 24.96 170.07 33.92 C 181.30 44.21 188.36 58.78 190.37 73.81 C 192.61 91.61 185.75 109.29 175.51 123.59 C 163.17 141.00 146.72 155.08 129.33 167.25 C 120.91 172.20 113.44 179.47 103.60 181.47 C 95.52 183.11 87.60 179.51 81.26 174.77 C 62.53 163.51 45.09 149.80 30.78 133.23 C 19.84 120.36 10.81 105.01 8.96 87.95 C 7.09 72.85 11.76 57.54 19.92 44.90 C 24.24 37.20 30.96 31.10 38.24 26.25 M 30.56 47.51 C 21.51 59.81 17.03 75.80 20.15 90.94 C 23.65 108.26 34.64 122.86 46.70 135.29 C 59.85 148.46 74.69 160.07 91.17 168.79 C 93.31 169.90 95.43 171.49 97.98 171.31 C 103.28 171.71 107.66 168.33 112.17 166.11 C 123.53 159.52 133.93 151.39 143.95 142.92 C 155.14 133.04 165.55 121.93 172.78 108.76 C 178.32 98.54 181.69 86.72 180.04 75.04 C 178.10 59.86 168.89 46.30 156.94 37.07 C 149.44 31.21 139.33 28.55 130.02 31.03 C 117.66 34.08 108.10 43.03 99.34 51.76 C 95.73 48.34 92.87 44.16 88.88 41.14 C 80.19 34.30 69.52 28.34 58.07 29.65 C 46.66 30.92 37.51 38.93 30.56 47.51 Z" />
</g>
</svg>
